<svg aria-hidden="true" style="position: absolute; width: 0; height: 0; overflow: hidden;" version="1.1" xmlns="http://www.w3.org/2000/svg" xmlns:xlink="http://www.w3.org/1999/xlink">
<defs>
<symbol id="icon-phone" viewBox="0 0 32 32">
<path d="M22.804 29.816c-0.001 0-0.001 0-0.002 0-1.19 0-2.306-0.319-3.266-0.876l0.031 0.017-0.139-0.078c-6.456-3.739-11.712-8.889-15.467-15.055l-0.108-0.191-0.725-1.208c-0.579-0.949-0.922-2.097-0.922-3.325 0-1.784 0.724-3.4 1.894-4.568l1.444-1.444c1.214-1.214 3.188-1.214 4.401 0l3.182 3.182c0.562 0.565 0.909 1.343 0.909 2.203 0 0.56-0.147 1.086-0.405 1.54l0.008-0.015-1.196 2.124c-0.019 0.033-0.030 0.073-0.030 0.115 0 0.065 0.026 0.124 0.069 0.166l7.085 7.085c0.043 0.042 0.102 0.068 0.167 0.068 0.043 0 0.083-0.011 0.118-0.031l-0.001 0.001 2.122-1.196c0.439-0.25 0.964-0.397 1.524-0.397 0.86 0 1.638 0.347 2.203 0.909l3.183 3.184c1.214 1.214 1.214 3.188 0 4.401l-1.508 1.507c-1.167 1.163-2.777 1.883-4.555 1.883-0.005 0-0.011 0-0.016-0h0.001zM7.744 4.384c-0.232 0-0.463 0.088-0.64 0.265l-1.444 1.443c-0.77 0.769-1.247 1.832-1.247 3.007 0 0.808 0.226 1.564 0.618 2.207l-0.011-0.019 0.725 1.208c3.664 6.030 8.65 10.916 14.578 14.358l0.196 0.105 0.139 0.078c1.684 0.963 3.802 0.691 5.155-0.664l1.508-1.507c0.164-0.164 0.265-0.39 0.265-0.64s-0.101-0.476-0.265-0.64v0l-3.183-3.185c-0.164-0.163-0.39-0.264-0.64-0.264-0.163 0-0.317 0.043-0.449 0.119l0.004-0.002-2.121 1.195c-0.345 0.197-0.758 0.312-1.198 0.312-0.675 0-1.285-0.272-1.729-0.713l-7.085-7.085c-0.441-0.443-0.714-1.053-0.714-1.727 0-0.44 0.116-0.853 0.319-1.21l-0.006 0.012 1.196-2.123c0.072-0.128 0.115-0.28 0.115-0.443 0-0.25-0.101-0.476-0.264-0.641l-3.183-3.181c-0.163-0.164-0.389-0.265-0.639-0.265-0 0-0.001 0-0.001 0h0z"></path>
</symbol>
<symbol id="icon-arrow-lang" viewBox="0 0 32 32">
<path d="M9.15 13.2l1-1 5.85 5.9 5.85-5.9 1 1-6.85 6.85-6.85-6.85z"></path>
</symbol>
<symbol id="icon-arrow-up" viewBox="0 0 32 32">
<path d="M16 0c-8.837 0-16 7.163-16 16s7.163 16 16 16c8.837 0 16-7.163 16-16v0c0-8.837-7.163-16-16-16v0zM16 30c-7.732 0-14-6.268-14-14s6.268-14 14-14c7.732 0 14 6.268 14 14v0c0 7.732-6.268 14-14 14v0z"></path>
<path d="M15.29 10.29l-8 8 1.41 1.41 7.3-7.29 7.29 7.29 1.41-1.41-8-8c-0.181-0.18-0.43-0.291-0.705-0.291s-0.524 0.111-0.705 0.291l0-0z"></path>
</symbol>
<symbol id="icon-email" viewBox="0 0 32 32">
<path d="M28.16 7.36h-24.32c-0.352 0-0.64 0.288-0.64 0.64v16c0 0.352 0.288 0.64 0.64 0.64h24.32c0.352 0 0.64-0.288 0.64-0.64v-16c0-0.352-0.288-0.64-0.64-0.64zM26.624 8.64l-10.624 10.624-10.624-10.624h21.248zM4.48 9.536l6.464 6.464-6.464 6.464v-12.928zM5.408 23.36l6.432-6.432 3.712 3.712c0.256 0.256 0.64 0.256 0.896 0l3.712-3.712 6.432 6.432h-21.184zM27.52 22.464l-6.464-6.464 6.464-6.464v12.928z"></path>
<path d="M257.28-163.2v538.88h-570.88v-538.88h570.88zM259.84-165.76h-576v544h576v-544z"></path>
</symbol>
<symbol id="icon-russia-flag" viewBox="0 0 46 32">
<path fill="#fff" style="fill: var(--color1, #fff)" d="M2.567 0.050h40.814c1.387 0 2.517 1.13 2.517 2.517v13.433h-45.848v-13.433c0-1.387 1.13-2.517 2.517-2.517v0z"></path>
<path fill="#d52b1e" style="fill: var(--color2, #d52b1e)" d="M0.050 16h45.857v13.433c0 1.387-1.13 2.517-2.517 2.517h-40.822c-1.387 0-2.517-1.138-2.517-2.517v-13.433z"></path>
<path fill="#0039a6" style="fill: var(--color3, #0039a6)" d="M0.050 10.683h45.857v10.633h-45.857v-10.633z"></path>
</symbol>
<symbol id="icon-united-kingdom-flag" viewBox="0 0 46 32">
<path fill="#fefefe" style="fill: var(--color4, #fefefe)" d="M2.392 32h41.217c1.325-0.075 2.392-1.183 2.392-2.525v-26.95c0-1.383-1.125-2.517-2.508-2.525h-40.983c-1.383 0.008-2.508 1.142-2.508 2.525v26.942c0 1.35 1.067 2.458 2.392 2.533v0z"></path>
<path fill="#c8102e" style="fill: var(--color5, #c8102e)" d="M19.783 19.192v12.808h6.4v-12.808h19.817v-6.4h-19.817v-12.792h-6.4v12.792h-19.783v6.4h19.783z"></path>
<path fill="#012169" style="fill: var(--color6, #012169)" d="M28.317 10.358v-10.358h15.192c1.050 0.017 1.95 0.675 2.317 1.6l-17.508 8.758z"></path>
<path fill="#012169" style="fill: var(--color6, #012169)" d="M28.317 21.642v10.358h15.292c1.008-0.058 1.858-0.708 2.217-1.6l-17.508-8.758z"></path>
<path fill="#012169" style="fill: var(--color6, #012169)" d="M17.65 21.642v10.358h-15.258c-1.008-0.058-1.867-0.708-2.217-1.617l17.475-8.742z"></path>
<path fill="#012169" style="fill: var(--color6, #012169)" d="M17.65 10.358v-10.358h-15.158c-1.050 0.017-1.958 0.683-2.317 1.617l17.475 8.742z"></path>
<path fill="#012169" style="fill: var(--color6, #012169)" d="M0 10.667h6.375l-6.375-3.192v3.192z"></path>
<path fill="#012169" style="fill: var(--color6, #012169)" d="M46 10.667h-6.408l6.408-3.208v3.208z"></path>
<path fill="#012169" style="fill: var(--color6, #012169)" d="M46 21.333h-6.408l6.408 3.208v-3.208z"></path>
<path fill="#012169" style="fill: var(--color6, #012169)" d="M0 21.333h6.375l-6.375 3.192v-3.192z"></path>
<path fill="#c8102e" style="fill: var(--color5, #c8102e)" d="M46 2.708l-15.875 7.958h3.55l12.325-6.167v-1.792z"></path>
<path fill="#c8102e" style="fill: var(--color5, #c8102e)" d="M15.842 21.333h-3.55l-12.292 6.15v1.792l15.875-7.942h-0.033z"></path>
<path fill="#c8102e" style="fill: var(--color5, #c8102e)" d="M8.767 10.675h3.55l-12.317-6.167v1.783l8.767 4.383z"></path>
<path fill="#c8102e" style="fill: var(--color5, #c8102e)" d="M37.192 21.325h-3.55l12.358 6.192v-1.783l-8.808-4.408z"></path>
</symbol>
<symbol id="icon-poland-flag" viewBox="0 0 46 32">
<path fill="#fff" style="fill: var(--color1, #fff)" d="M2.604 0.089h40.712c1.383 0 2.514 1.131 2.514 2.514v26.793c0 1.381-1.131 2.514-2.514 2.514h-40.712c-1.383 0-2.514-1.133-2.514-2.514v-26.793c0-1.383 1.131-2.514 2.514-2.514z"></path>
<path fill="#dc143c" style="fill: var(--color7, #dc143c)" d="M0.089 16h45.74v13.396c0 1.381-1.131 2.514-2.514 2.514h-40.712c-1.383 0-2.514-1.133-2.514-2.514v-13.396z"></path>
<path fill="#ccc" style="fill: var(--color8, #ccc)" d="M2.604 0h40.712c0.717 0 1.368 0.293 1.839 0.764 0.472 0.47 0.764 1.12 0.764 1.839 0 0 0 0 0 0v0 26.793c0 0.715-0.293 1.366-0.764 1.837s-1.122 0.767-1.839 0.767h-40.712c-0.715 0-1.368-0.295-1.839-0.767-0.472-0.469-0.764-1.119-0.764-1.837v-26.793c0-0.717 0.293-1.368 0.764-1.839s1.124-0.764 1.839-0.764zM43.316 0.179h-40.712c-0.668 0-1.274 0.273-1.712 0.713-0.44 0.437-0.713 1.043-0.713 1.712v0 26.793c0 0.666 0.273 1.272 0.713 1.712 0.438 0.44 1.044 0.713 1.712 0.713h40.712c0.668 0 1.274-0.273 1.714-0.713 0.438-0.44 0.711-1.046 0.711-1.712v-26.793c0-0.666-0.273-1.274-0.713-1.712-0.437-0.44-1.042-0.713-1.711-0.713-0.001 0-0.001 0-0.002 0h0z"></path>
</symbol>
<symbol id="icon-ukraine-flag" viewBox="0 0 46 32">
<path fill="#005bbb" style="fill: var(--color9, #005bbb)" d="M2.525 0h40.942c1.392 0 2.525 1.133 2.525 2.525v26.942c0 1.392-1.142 2.525-2.525 2.525h-40.942c-1.383 0.008-2.525-1.125-2.525-2.517v-26.95c0-1.392 1.142-2.525 2.525-2.525v0z"></path>
<path fill="#ffd500" style="fill: var(--color10, #ffd500)" d="M0 16h46v13.475c0 1.392-1.142 2.525-2.525 2.525h-40.95c-1.383 0-2.525-1.133-2.525-2.525v-13.475z"></path>
</symbol>
<symbol id="icon-phone-modal" viewBox="0 0 32 32">
<path d="M24.882 19.774l-3.268-0.373c-0.090-0.011-0.194-0.018-0.3-0.018-0.707 0-1.347 0.287-1.81 0.75l-2.368 2.368c-3.669-1.894-6.585-4.81-8.427-8.372l-0.051-0.108 2.382-2.377c0.463-0.463 0.75-1.103 0.75-1.81 0-0.106-0.006-0.21-0.019-0.312l0.001 0.012-0.373-3.243c-0.155-1.287-1.24-2.276-2.557-2.276-0.001 0-0.002 0-0.003 0h-2.226c-1.454 0-2.663 1.209-2.574 2.661 0.683 10.987 9.47 19.762 20.444 20.444 1.452 0.089 2.663-1.12 2.663-2.574v-2.226c0-0.004 0-0.008 0-0.012 0-1.308-0.985-2.386-2.253-2.532l-0.012-0.001z"></path>
</symbol>
<symbol id="icon-person-modal" viewBox="0 0 32 32">
<path d="M16 16c2.946 0 5.333-2.388 5.333-5.333s-2.388-5.333-5.333-5.333v0c-2.946 0-5.333 2.388-5.333 5.333s2.388 5.333 5.333 5.333v0zM16 18.667c-3.561 0-10.667 1.787-10.667 5.333v1.333c0 0.732 0.599 1.333 1.333 1.333h18.667c0.732 0 1.333-0.601 1.333-1.333v-1.333c0-3.547-7.108-5.333-10.667-5.333z"></path>
</symbol>
<symbol id="icon-close" viewBox="0 0 32 32">
<path d="M32 3.223l-3.223-3.223-12.777 12.777-12.777-12.777-3.223 3.223 12.777 12.777-12.777 12.777 3.223 3.223 12.777-12.777 12.777 12.777 3.223-3.223-12.777-12.777 12.777-12.777z"></path>
</symbol>
</defs>
</svg>
